<svg width="24" height="24" viewBox="0 0 24 24" fill="none" xmlns="http://www.w3.org/2000/svg">
<path d="M9.2401 19.035C8.3391 18.209 8.0761 16.474 8.4511 15.216C9.1011 16.009 10.0031 16.26 10.9371 16.402C12.3771 16.62 13.7931 16.539 15.1321 15.878C15.2851 15.802 15.4271 15.701 15.5941 15.6C15.7201 15.965 15.7531 16.334 15.7091 16.71C15.6021 17.625 15.1491 18.332 14.4261 18.868C14.1371 19.083 13.8321 19.274 13.5341 19.476C12.6181 20.098 12.3701 20.826 12.7141 21.886L12.7481 22C12.3076 21.808 11.9348 21.4882 11.6781 21.082C11.4097 20.6639 11.2668 20.1778 11.2661 19.681C11.2631 19.433 11.2631 19.184 11.2301 18.941C11.1491 18.346 10.8701 18.081 10.3471 18.065C10.0961 18.0508 9.84842 18.1285 9.65056 18.2837C9.45269 18.4389 9.31814 18.6608 9.2721 18.908C9.26343 18.9467 9.25243 18.9887 9.2391 19.034M4.1001 15.007C4.1001 15.007 6.7661 13.704 9.4401 13.704L11.4561 7.444C11.5311 7.14 11.7521 6.934 12.0001 6.934C12.2501 6.934 12.4701 7.14 12.5451 7.444L14.5611 13.704C17.7281 13.704 19.9011 15.007 19.9011 15.007L15.3631 2.602C15.2331 2.236 15.0131 2 14.7181 2H9.2831C8.9871 2 8.7771 2.236 8.6381 2.602C8.6281 2.626 4.1001 15.007 4.1001 15.007Z" fill="black"/>
</svg>
