<svg width="22" height="20" viewBox="0 0 22 20" fill="none" xmlns="http://www.w3.org/2000/svg">
<path d="M11 8.11009C12.03 8.11009 12.87 8.95009 12.87 10.0001C12.87 11.0001 12.03 11.8501 11 11.8501C9.97 11.8501 9.13 11.0001 9.13 10.0001C9.13 8.95009 9.97 8.11009 11 8.11009ZM6.37 18.0001C7 18.3801 8.38 17.8001 9.97 16.3001C9.45 15.7101 8.94 15.0701 8.46 14.4001C7.65422 14.3224 6.85311 14.2022 6.06 14.0401C5.55 16.1801 5.74 17.6501 6.37 18.0001ZM7.08 12.2601L6.79 11.7501C6.68 12.0401 6.57 12.3301 6.5 12.6101C6.77 12.6701 7.07 12.7201 7.38 12.7701L7.08 12.2601ZM13.62 11.5001L14.43 10.0001L13.62 8.50009C13.32 7.97009 13 7.50009 12.71 7.03009C12.17 7.00009 11.6 7.00009 11 7.00009C10.4 7.00009 9.83 7.00009 9.29 7.03009C9 7.50009 8.68 7.97009 8.38 8.50009L7.57 10.0001L8.38 11.5001C8.68 12.0301 9 12.5001 9.29 12.9701C9.83 13.0001 10.4 13.0001 11 13.0001C11.6 13.0001 12.17 13.0001 12.71 12.9701C13 12.5001 13.32 12.0301 13.62 11.5001ZM11 4.78009C10.81 5.00009 10.61 5.23009 10.41 5.50009H11.59C11.39 5.23009 11.19 5.00009 11 4.78009ZM11 15.2201C11.19 15.0001 11.39 14.7701 11.59 14.5001H10.41C10.61 14.7701 10.81 15.0001 11 15.2201ZM15.62 2.00009C15 1.62009 13.62 2.20009 12.03 3.70009C12.55 4.29009 13.06 4.93009 13.54 5.60009C14.36 5.68009 15.17 5.80009 15.94 5.96009C16.45 3.82009 16.26 2.35009 15.62 2.00009ZM14.92 7.74009L15.21 8.25009C15.32 7.96009 15.43 7.67009 15.5 7.39009C15.23 7.33009 14.93 7.28009 14.62 7.23009L14.92 7.74009ZM16.37 0.69009C17.84 1.53009 18 3.74009 17.38 6.32009C19.92 7.07009 21.75 8.31009 21.75 10.0001C21.75 11.6901 19.92 12.9301 17.38 13.6801C18 16.2601 17.84 18.4701 16.37 19.3101C14.91 20.1501 12.92 19.1901 11 17.3601C9.08 19.1901 7.09 20.1501 5.62 19.3101C4.16 18.4701 4 16.2601 4.62 13.6801C2.08 12.9301 0.25 11.6901 0.25 10.0001C0.25 8.31009 2.08 7.07009 4.62 6.32009C4 3.74009 4.16 1.53009 5.62 0.69009C7.09 -0.14991 9.08 0.810089 11 2.64009C12.92 0.810089 14.91 -0.14991 16.37 0.69009ZM16.08 10.0001C16.42 10.7501 16.72 11.5001 16.97 12.2601C19.07 11.6301 20.25 10.7301 20.25 10.0001C20.25 9.27009 19.07 8.37009 16.97 7.74009C16.72 8.50009 16.42 9.25009 16.08 10.0001ZM5.92 10.0001C5.58 9.25009 5.28 8.50009 5.03 7.74009C2.93 8.37009 1.75 9.27009 1.75 10.0001C1.75 10.7301 2.93 11.6301 5.03 12.2601C5.28 11.5001 5.58 10.7501 5.92 10.0001ZM14.92 12.2601L14.62 12.7701C14.93 12.7201 15.23 12.6701 15.5 12.6101C15.43 12.3301 15.32 12.0401 15.21 11.7501L14.92 12.2601ZM12.03 16.3001C13.62 17.8001 15 18.3801 15.62 18.0001C16.26 17.6501 16.45 16.1801 15.94 14.0401C15.17 14.2001 14.36 14.3201 13.54 14.4001C13.06 15.0701 12.55 15.7101 12.03 16.3001ZM7.08 7.74009L7.38 7.23009C7.07 7.28009 6.77 7.33009 6.5 7.39009C6.57 7.67009 6.68 7.96009 6.79 8.25009L7.08 7.74009ZM9.97 3.70009C8.38 2.20009 7 1.62009 6.37 2.00009C5.74 2.35009 5.55 3.82009 6.06 5.96009C6.85311 5.79794 7.65422 5.67777 8.46 5.60009C8.94 4.93009 9.45 4.29009 9.97 3.70009Z" fill="black"/>
</svg>
